control3min_grf.mot
version=1
nRows=12
nColumns 19
inDegrees=yes
endheader
time	1_ground_force_vx	1_ground_force_vy	1_ground_force_vz	1_ground_force_px	1_ground_force_py	1_ground_force_pz	1_ground_torque_x	1_ground_torque_y	1_ground_torque_z	2_ground_force_vx	2_ground_force_vy	2_ground_force_vz	2_ground_force_px	2_ground_force_py	2_ground_force_pz	2_ground_torque_x	2_ground_torque_y	2_ground_torque_z
            3.751500	            0.460734	            2.338824	            1.109453	           -0.233013	            0.005581	           -0.255695	           -0.142523	           -0.008537	           -0.093007	            0.140721	           -0.179624	           -1.126991	           -0.232311	            0.006130	           -0.833667	           -0.168897	           -0.057058	           -0.075531
            3.752000	            0.185512	            3.240099	            1.114000	           -0.233013	            0.005581	           -0.255695	           -0.349432	           -0.036756	           -0.029183	            0.563014	           -0.362082	           -1.174756	           -0.232311	            0.006130	           -0.833667	           -0.262994	           -0.010133	           -0.075323
            3.752500	            0.139803	            1.257561	            1.013899	           -0.233013	            0.005581	           -0.255695	           -0.306846	           -0.045774	           -0.087606	            0.512944	            0.557653	           -0.936810	           -0.232311	            0.006130	           -0.833667	           -0.094130	            0.047193	           -0.075192
            3.753000	            0.002631	            1.797545	            1.199983	           -0.233013	            0.005581	           -0.255695	           -0.333762	           -0.008943	           -0.074466	            0.238470	           -1.284678	           -0.990189	           -0.232311	            0.006130	           -0.833667	           -0.169145	            0.018362	           -0.018711
            3.753500	            0.048246	            1.797947	            1.108158	           -0.233013	            0.005581	           -0.255695	           -0.254850	           -0.017992	           -0.110342	            0.654782	            0.190199	           -1.032040	           -0.232311	            0.006130	           -0.833667	           -0.131541	            0.018229	            0.056674
            3.754000	            0.415299	            1.977694	            1.245588	           -0.233013	            0.005581	           -0.255695	           -0.335929	           -0.008510	           -0.113267	            0.513588	            0.373672	           -0.984395	           -0.232311	            0.006130	           -0.833667	           -0.093713	           -0.066306	           -0.056747
            3.754500	            0.552926	            1.436923	            1.242928	           -0.233013	            0.005581	           -0.255695	           -0.185150	           -0.045794	           -0.013927	            0.323489	            1.109924	           -1.075543	           -0.232311	            0.006130	           -0.833667	           -0.225330	           -0.029105	           -0.018856
            3.755000	            0.323502	            0.716406	            1.102837	           -0.233013	            0.005581	           -0.255695	           -0.235257	           -0.036510	           -0.061107	            0.606541	            0.558828	           -1.171490	           -0.232311	            0.006130	           -0.833667	           -0.225347	           -0.028970	           -0.056556
            3.755500	            0.277934	            1.076339	            1.242065	           -0.233013	            0.005581	           -0.255695	           -0.260424	            0.037900	           -0.175482	            0.467361	            0.189689	           -1.078889	           -0.232311	            0.006130	           -0.833667	           -0.112636	           -0.019380	            0.018831
            3.756000	            0.094122	            1.617690	            1.107271	           -0.233013	            0.005581	           -0.255695	           -0.216998	           -0.018286	           -0.033284	            0.418394	            0.742969	           -1.358466	           -0.232311	            0.006130	           -0.833667	           -0.131641	            0.028219	           -0.094094
            3.756500	            0.185955	            1.437246	            1.152126	           -0.233013	            0.005581	           -0.255695	           -0.218781	           -0.018323	           -0.010566	            0.569660	           -2.203566	           -1.181326	           -0.232311	            0.006130	           -0.833667	           -0.150359	            0.018430	           -0.018719
            3.757000	            0.232139	            1.436665	            1.289580	           -0.233013	            0.005581	           -0.255695	           -0.299834	            0.037309	           -0.045768	            0.372935	            0.374002	           -1.218976	           -0.232311	            0.006130	           -0.833667	           -0.187735	           -0.029171	            0.037679
